# xmcd
#
# Track frame offsets:
#	150
#	13853
#	28265
#	48424
#	64625
#	77907
#	95753
#	115344
#	126059
#	142428
#	162204
#	177793
#	192229
#	206677
#	222802
#	238593
#	252279
#	268698
#	283367
#	298155
#
# Disc length: 4281 seconds
#
# Revision: 1
# Processed by: cddbd v1.4PL0 Copyright (c) Steve Scherf et al.
# Submitted via: EasyCDDAExtractor 6.2.0.3
#
DISCID=3f10b714
DTITLE=Joel Hallikainen - Kaikki parhaat
DYEAR=2003
DGENRE=Dance
TTITLE0=Kuurankukka
TTITLE1=Soittajan taivas
TTITLE2=Polvihousupoika
TTITLE3=Haihtuu päivät
TTITLE4=Onnenpyörässä
TTITLE5=Opetuslapset
TTITLE6=Yksi plus yksi
TTITLE7=Mietin elämää
TTITLE8=Aika pienet siivet
TTITLE9=Miehen kyyneleet
TTITLE10=Paljon sanomatta jää
TTITLE11=Surunpisaroita
TTITLE12=Entä sitten
TTITLE13=Oletko nähnyt
TTITLE14=Hiekkalinna
TTITLE15=Rakkaus toimii hellahuoneessa
TTITLE16=Lähtevien laivojen satama
TTITLE17=Antaa surun mennä
TTITLE18=Reissumiehen romantiikkaa
TTITLE19=Mitä sanoisin
EXTD=
EXTT0=
EXTT1=
EXTT2=
EXTT3=
EXTT4=
EXTT5=
EXTT6=
EXTT7=
EXTT8=
EXTT9=
EXTT10=
EXTT11=
EXTT12=
EXTT13=
EXTT14=
EXTT15=
EXTT16=
EXTT17=
EXTT18=
EXTT19=
PLAYORDER=
